<?xml version="1.0" encoding="utf-8"?>
<!-- Generator: Adobe Illustrator 18.1.1, SVG Export Plug-In . SVG Version: 6.00 Build 0)  -->
<svg version="1.1" xmlns="http://www.w3.org/2000/svg" xmlns:xlink="http://www.w3.org/1999/xlink" x="0px" y="0px"
	 viewBox="240 0 800 800" enable-background="new 240 0 800 800" xml:space="preserve">
<g id="Fläche">
	<path fill="#EB8C00" d="M240,0h800v800H240V0z"/>
</g>
<g id="Linien_ohne_Innenkörper_Kopie">
	<path fill-rule="evenodd" clip-rule="evenodd" fill="#FFFFFF" stroke="#FFFFFF" stroke-width="2" stroke-miterlimit="10" d="
		M486.3,357.4c14.8,4.9,29.5,9.7,44.3,14.6c7.5,2.5,21.9,2.2,29.2-0.9c11.4-4.9,22.8-9.7,34.2-14.6c2.3-1,4.6-2,6.9-2.9
		c-22.1-6.3-44.3-12.7-66.4-19c-16-4.6-32.1-9.2-48.1-13.8v-12.6c17.2,4.9,34.3,9.8,51.5,14.7c31.5,9,63,18,94.5,27
		c0.8,0.2,2.5,0.8,3.8,1.4c-1.1,0.7-2.5,1.4-3.1,1.6c-11.4,4.9-22.8,9.7-34.2,14.6c-11.4,4.9-22.8,9.7-34.2,14.6
		c-10,4.3-27.4,4.7-37.8,1.3c-13.5-4.5-27-8.9-40.5-13.4V357.4L486.3,357.4z M401.6,329.4l33.7,11.1c17,5.6,34,11.2,51,16.8v12.7
		c-18.3-6-36.5-12.1-54.8-18.1l-29.9-9.9V329.4L401.6,329.4z M486.3,320.8c-15.4-4.4-30.9-8.8-46.3-13.3c-8.3-2.4-23.5-2.4-31.7,0.3
		l-6.6,2.1v-12.7l2.9-0.9c10.4-3.4,28.2-3.4,38.8-0.4c14.3,4.1,28.7,8.2,43,12.3V320.8L486.3,320.8z M371.7,319.6l29.9,9.9v12.7
		c-21.8-7.2-43.6-14.4-65.4-21.6c-0.6-0.2-1.9-0.7-3.1-1.2c0.7-0.3,1.5-0.6,1.9-0.7c11.6-3.7,23.2-7.4,34.8-11.2
		c10.6-3.4,21.2-6.8,31.8-10.2V310"/>
	<g>
		<path fill-rule="evenodd" clip-rule="evenodd" fill="#FFFFFF" stroke="#FFFFFF" stroke-width="2" stroke-miterlimit="10" d="
			M808.4,226.6c14.9,4.3,29.9,8.7,44.8,13c7.6,2.2,22,1.4,29.2-2c11.2-5.3,22.4-10.5,33.6-15.8c2.3-1.1,4.5-2.1,6.8-3.2
			c-22.4-5.5-44.7-11-67.1-16.6c-16.2-4-32.4-8-48.6-12l-0.5-12.6c17.3,4.3,34.6,8.6,52,12.8c31.8,7.9,63.6,15.7,95.4,23.5
			c0.8,0.2,2.5,0.7,3.8,1.3c-1,0.7-2.4,1.5-3.1,1.8c-11.2,5.3-22.4,10.5-33.6,15.8c-11.2,5.3-22.4,10.5-33.6,15.8
			c-9.8,4.6-27.3,5.7-37.7,2.7c-13.7-4-27.3-7.9-41-11.9L808.4,226.6L808.4,226.6z"/>
		<path fill-rule="evenodd" clip-rule="evenodd" fill="#FFFFFF" stroke="#FFFFFF" stroke-width="2" stroke-miterlimit="10" d="
			M722.7,201.7l34.1,9.9c17.2,5,34.4,10,51.6,15l0.5,12.7c-18.5-5.4-37-10.7-55.4-16.1l-30.2-8.8L722.7,201.7L722.7,201.7z"/>
		<path fill-rule="evenodd" clip-rule="evenodd" fill="#FFFFFF" stroke="#FFFFFF" stroke-width="2" stroke-miterlimit="10" d="
			M807.1,190c-15.6-3.9-31.2-7.7-46.8-11.5c-8.3-2.1-23.6-1.5-31.7,1.4l-6.5,2.4l-0.5-12.7l2.9-1c10.3-3.7,28.1-4.4,38.7-1.8
			c14.5,3.6,29,7.1,43.4,10.7L807.1,190L807.1,190z"/>
		<path fill-rule="evenodd" clip-rule="evenodd" fill="#FFFFFF" stroke="#FFFFFF" stroke-width="2" stroke-miterlimit="10" d="
			M692.5,192.9l30.2,8.8l0.5,12.7c-22-6.4-44.1-12.8-66.1-19.2c-0.7-0.2-1.9-0.6-3.1-1.1c0.7-0.3,1.4-0.6,1.9-0.8
			c11.4-4.1,22.9-8.3,34.3-12.4c10.5-3.8,20.9-7.6,31.4-11.4l0.5,12.7c-9.3,3.4-18.5,6.7-27.8,10.1
			C693.7,192.5,693.1,192.7,692.5,192.9L692.5,192.9z"/>
	</g>
	<g>
		<path fill-rule="evenodd" clip-rule="evenodd" fill="#FFFFFF" stroke="#FFFFFF" stroke-width="2" stroke-miterlimit="10" d="
			M541.1,229.2l0.7-13.5c14.9-6.4,29.7-12.8,44.6-19.3c-9.3-2.5-18.7-4.9-28-7.4c-3.8-1-9.6-1-15.2-0.4l0.6-12.2
			c6.4-0.5,12.9-0.3,17.7,1c10.2,2.7,20.4,5.4,30.5,8.1c10.2,2.7,20.3,5.4,30.5,8.1c0.1,0,0.3,0.1,0.4,0.1c-0.9,0.5-1.8,0.9-2.3,1.2
			C594.1,206.3,567.6,217.7,541.1,229.2L541.1,229.2z"/>
		<path fill-rule="evenodd" clip-rule="evenodd" fill="#FFFFFF" stroke="#FFFFFF" stroke-width="2" stroke-miterlimit="10" d="
			M543.7,176.4l-0.6,12.2c-4.5,0.5-8.7,1.4-11.7,2.5l-32.6,12.1l0.6-13.1l27.7-10.3C531.6,178.1,537.6,176.9,543.7,176.4
			L543.7,176.4z"/>
		<path fill-rule="evenodd" clip-rule="evenodd" fill="#FFFFFF" stroke="#FFFFFF" stroke-width="2" stroke-miterlimit="10" d="
			M541.8,215.7l-0.7,13.5l-4.1,1.8c-13.5,5.8-27,11.7-40.4,17.5l0.7-13.5c11.7-5,23.3-10.1,35-15.1L541.8,215.7L541.8,215.7z"/>
		<path fill-rule="evenodd" clip-rule="evenodd" fill="#FFFFFF" stroke="#FFFFFF" stroke-width="2" stroke-miterlimit="10" d="
			M499.5,190l-0.6,13.1c-18,6.7-36,13.4-53.9,20c-18.1,6.7-36.1,13.4-54.2,20.1l0.6-13.1l49.3-18.3
			C460.3,204.6,479.9,197.3,499.5,190L499.5,190z"/>
		<path fill-rule="evenodd" clip-rule="evenodd" fill="#FFFFFF" stroke="#FFFFFF" stroke-width="2" stroke-miterlimit="10" d="
			M497.3,235c-16.2,7-32.4,14-48.6,21c-6.3,2.7-19,3.3-25.5,1.1c-10.9-3.7-21.7-7.4-32.6-11.1l-0.6,12.6c9.8,3.3,19.5,6.6,29.3,10
			c9.3,3.2,25.2,2.4,34.2-1.5c14.4-6.2,28.7-12.4,43.1-18.6L497.3,235L497.3,235z"/>
		<path fill-rule="evenodd" clip-rule="evenodd" fill="#FFFFFF" stroke="#FFFFFF" stroke-width="2" stroke-miterlimit="10" d="
			M391.4,230.2c-11.9,4.4-23.8,8.8-35.6,13.2l-0.2,3.5c10.3,3.5,20.6,7,30.9,10.5l3.5,1.2l0.6-12.6l-0.2-0.1
			c-1.2-0.4-2.3-0.8-3.5-1.2l3.8-1.4L391.4,230.2L391.4,230.2z"/>
		<path fill-rule="evenodd" clip-rule="evenodd" fill="#FFFFFF" stroke="#FFFFFF" stroke-width="2" stroke-miterlimit="10" d="
			M355.7,243.4l-0.2,3.5l-1.9-0.7c-0.5-0.2-1.4-0.5-2.3-0.9c1-0.6,2.2-1,2.8-1.3L355.7,243.4L355.7,243.4z"/>
	</g>
	<g>
		<path fill-rule="evenodd" clip-rule="evenodd" fill="#FFFFFF" stroke="#FFFFFF" stroke-width="2" stroke-miterlimit="10" d="
			M828.8,518.4v-65.7c2.6-17.2,5.1-34.4,7.7-51.6l2.3-15.3l-10,4.9v-13.5c8.5-4.2,16.9-8.3,25.4-12.5l-5.7,38.2
			c-5.1,33.9-10.1,67.9-15.2,101.8C832.7,508.8,831.1,513.7,828.8,518.4L828.8,518.4z"/>
		<path fill-rule="evenodd" clip-rule="evenodd" fill="#FFFFFF" stroke="#FFFFFF" stroke-width="2" stroke-miterlimit="10" d="
			M828.8,377.2v13.5c-10.4,5.1-20.8,10.3-31.2,15.4c-14.4,7.1-36.3,9.1-51.7,4.7c-7.7-2.2-15.3-4.4-23-6.6v-12.6
			c8.8,2.5,17.6,5,26.3,7.5c12.5,3.6,31.4,1.8,43.1-4C804.4,389.2,816.6,383.2,828.8,377.2L828.8,377.2z"/>
		<path fill-rule="evenodd" clip-rule="evenodd" fill="#FFFFFF" stroke="#FFFFFF" stroke-width="2" stroke-miterlimit="10" d="
			M828.8,452.7v65.7c-3,6.4-7.3,12.4-12,15.3c-23,14.5-46,29-69,43.6c-8.3,5.3-16.7,10.5-25,15.8v-14.3c6.2-3.9,12.4-7.8,18.6-11.7
			c23-14.5,46-29,69-43.6c5-3.2,10.1-14.9,10.9-20.5C823.8,486.2,826.3,469.5,828.8,452.7L828.8,452.7z"/>
		<path fill-rule="evenodd" clip-rule="evenodd" fill="#FFFFFF" stroke="#FFFFFF" stroke-width="2" stroke-miterlimit="10" d="
			M722.8,391.7v12.6l-10.3-2.9c-8.2-2.3-16.4-4.7-24.6-7v-12.6c9.3,2.7,18.6,5.3,27.9,8L722.8,391.7L722.8,391.7z"/>
		<path fill-rule="evenodd" clip-rule="evenodd" fill="#FFFFFF" stroke="#FFFFFF" stroke-width="2" stroke-miterlimit="10" d="
			M722.8,578.8v14.3c-11.6,7.4-23.3,14.7-34.9,22.1v-14.3C699.5,593.5,711.2,586.1,722.8,578.8z"/>
		<path fill-rule="evenodd" clip-rule="evenodd" fill="#FFFFFF" stroke="#FFFFFF" stroke-width="2" stroke-miterlimit="10" d="
			M687.9,381.7v12.6l-3.1-0.9c0,36.1,0,72.2,0,108.2c0,33.7,0,67.5,0,101.2l3.1-2v14.3l-9,5.7c-0.6,0.4-2,1.1-2.8,0.9
			c-0.8-0.3-1.5-1.5-1.9-2.2c-1.2-2.5-1.5-5.8-1.5-8.5c0-36.5,0-72.9,0-109.4c0-36.5,0-72.9,0-109.4c0-4.4,1.3-9.7,3.5-14.5l2.5,1.1
			c1.2,0.5,2.5,1,3.8,1.3L687.9,381.7L687.9,381.7z"/>
	</g>
	<g>
		<path fill-rule="evenodd" clip-rule="evenodd" fill="#FFFFFF" stroke="#FFFFFF" stroke-width="2" stroke-miterlimit="10" d="
			M475,554.1L475,554.1c26,11.2,51.8,22.3,77.7,33.4c25.9,11.1,51.8,22.2,77.7,33.4c7.2,3.1,9.1-6.3,9-11.5
			c-0.1-36.2-0.1-72.5-0.2-108.7c-0.1-36.3-0.1-72.5-0.2-108.8c0-4.9-1.7-10.3-4.6-14.9l-2.9,1.9c-1.6,1-3.4,2-5.1,2.7
			c-11.4,4.9-22.8,9.7-34.2,14.6c-11.4,4.9-22.8,9.7-34.2,14.6c-12.8,5.5-33.4,6-46.6,1.7c-12.2-4-24.4-8.1-36.6-12.1v12.7
			c10.9,3.6,21.8,7.2,32.8,10.8c16,5.3,39.6,4.6,55.2-2c11.4-4.9,22.8-9.7,34.2-14.6c10-4.3,20-8.5,30-12.8
			c0.1,35.4,0.1,70.8,0.2,106.2c0.1,35.2,0.1,70.5,0.2,105.7c-23.3-10-46.6-20-69.9-30c-25.9-11.1-51.8-22.3-77.7-33.4
			c-1.6-0.7-3.3-2.3-4.8-4.3V554.1L475,554.1z"/>
		<path fill-rule="evenodd" clip-rule="evenodd" fill="#FFFFFF" stroke="#FFFFFF" stroke-width="2" stroke-miterlimit="10" d="
			M475,400.3c-14.1-4.7-28.3-9.3-42.4-14c2.2,13,4.5,26,6.7,39c5.9,34.1,11.7,68.3,17.6,102.4c1.6,9.3,9.2,22.5,18.1,26.4v-15.4
			c-3.1-4-5.6-9.7-6.2-13c-5.9-34.1-11.7-68.3-17.6-102.4c-1.1-6.4-2.2-12.8-3.3-19.2l27.1,8.9V400.3L475,400.3z"/>
	</g>
	<path fill-rule="evenodd" clip-rule="evenodd" fill="#FFFFFF" stroke="#FFFFFF" stroke-width="2" stroke-miterlimit="10" d="
		M441.2,398c0,0,59.5,26.6,87.8,26.2c28.4-0.3,101.5-37.9,101.5-37.9l4.8,227.9l-165.1-69.7L441.2,398z"/>
	<path fill-rule="evenodd" clip-rule="evenodd" fill="#FFFFFF" stroke="#FFFFFF" stroke-width="2" stroke-miterlimit="10" d="
		M680.3,387.2v227.9l140.3-92.2l25.7-141.2c0,0-22.2,5.5-70.4,26"/>
	
		<polyline fill-rule="evenodd" clip-rule="evenodd" fill="#FFFFFF" stroke="#FFFFFF" stroke-width="2" stroke-miterlimit="10" points="
		355.5,320 427.4,299.5 614.5,352.5 545.7,382.2 	"/>
	
		<polygon fill-rule="evenodd" clip-rule="evenodd" fill="#FFFFFF" stroke="#FFFFFF" stroke-width="2" stroke-miterlimit="10" points="
		378.6,244.4 440.2,264.6 608.5,194.5 541.1,183.6 	"/>
	
		<polygon fill-rule="evenodd" clip-rule="evenodd" fill="#FFFFFF" stroke="#FFFFFF" stroke-width="2" stroke-miterlimit="10" points="
		694.3,348.6 863.1,275.5 919.1,285.2 762.8,365.6 	"/>
	
		<polygon fill-rule="evenodd" clip-rule="evenodd" fill="#FFFFFF" stroke="#FFFFFF" stroke-width="2" stroke-miterlimit="10" points="
		679.4,192 859.6,246.9 938.9,219.4 750.1,169.6 	"/>
	<path fill-rule="evenodd" clip-rule="evenodd" fill="#FFFFFF" stroke="#FFFFFF" stroke-width="2" stroke-miterlimit="10" d="
		M863.1,323.9v-13.5c14.5-7.2,29-14.3,43.6-21.5c-9.5-2-18.9-4-28.4-6c-3.9-0.8-9.7-0.6-15.2,0.3v-12.2c6.4-0.9,12.9-0.9,17.7,0.1
		c10.3,2.2,20.6,4.4,30.9,6.6c10.3,2.2,20.6,4.4,30.8,6.6c0.1,0,0.3,0.1,0.5,0.1c-0.9,0.6-1.8,1-2.3,1.3
		C914.8,298.4,889,311.2,863.1,323.9L863.1,323.9z"/>
	<path fill-rule="evenodd" clip-rule="evenodd" fill="#FFFFFF" stroke="#FFFFFF" stroke-width="2" stroke-miterlimit="10" d="
		M863.1,271.1v12.2c-4.4,0.7-8.7,1.8-11.6,3l-32,13.7v-13.2l27.2-11.7C851.1,273.4,857,271.9,863.1,271.1L863.1,271.1z"/>
	<path fill-rule="evenodd" clip-rule="evenodd" fill="#FFFFFF" stroke="#FFFFFF" stroke-width="2" stroke-miterlimit="10" d="
		M863.1,310.5v13.5l-4,2c-13.2,6.5-26.3,13-39.5,19.5v-13.5c11.4-5.6,22.8-11.2,34.2-16.8L863.1,310.5L863.1,310.5z"/>
	<path fill-rule="evenodd" clip-rule="evenodd" fill="#FFFFFF" stroke="#FFFFFF" stroke-width="2" stroke-miterlimit="10" d="
		M819.5,286.9V300c-17.6,7.6-35.3,15.1-52.9,22.7c-17.7,7.6-35.4,15.2-53.1,22.8v-13.2l48.3-20.7
		C781.1,303.4,800.3,295.1,819.5,286.9L819.5,286.9z"/>
	<path fill-rule="evenodd" clip-rule="evenodd" fill="#FFFFFF" stroke="#FFFFFF" stroke-width="2" stroke-miterlimit="10" d="
		M819.5,331.9c-15.8,7.8-31.7,15.6-47.5,23.4c-6.1,3-18.8,4.3-25.4,2.4c-11-3.1-22.1-6.3-33.1-9.5v12.6c9.9,2.8,19.9,5.7,29.8,8.5
		c9.5,2.7,25.2,1.2,34.1-3.2c14-6.9,28.1-13.8,42.1-20.7V331.9L819.5,331.9z"/>
	<path fill-rule="evenodd" clip-rule="evenodd" fill="#FFFFFF" stroke="#FFFFFF" stroke-width="2" stroke-miterlimit="10" d="
		M713.5,332.4c-11.6,5-23.3,10-34.9,15v3.5c10.5,3,20.9,6,31.4,9l3.6,1v-12.6l-0.2-0.1c-1.2-0.3-2.4-0.7-3.5-1l3.8-1.6V332.4
		L713.5,332.4z"/>
	<path fill-rule="evenodd" clip-rule="evenodd" fill="#FFFFFF" stroke="#FFFFFF" stroke-width="2" stroke-miterlimit="10" d="
		M678.6,347.3v3.5l-2-0.6c-0.5-0.1-1.5-0.5-2.3-0.8c1-0.6,2.2-1.1,2.7-1.4L678.6,347.3L678.6,347.3z"/>
</g>
<g id="Ebene_3" display="none">
	<g display="inline">
		<path fill="#F08D34" d="M238.9,5.7h800v800h-800V5.7z"/>
		<path fill="#FFFFFF" d="M651.6,354.8l136.2-47.5c6.5-2.4,13.7,0.9,16.1,7.3c2.4,6.5-0.8,13.7-7.3,16.1L663.9,377v165.3
			c0,7.4-5.6,13.3-12.5,13.3s-12.5-6-12.5-13.3V376.8l-133.4-47.7c-6.5-2.4-9.8-9.6-7.3-16.1c2.4-6.5,9.6-9.8,16.1-7.3L651.6,354.8
			L651.6,354.8z M657.3,204.8c-3.3-1-8.6-1-11.8,0l-200.7,64c-3.3,1.1-5.9,4.6-5.9,8v257.9c0,3.4,2.7,7,5.9,8l200.7,64
			c3.2,1,8.6,1,11.8,0l200.7-64c3.2-1,5.9-4.5,5.9-8V276.9c0-3.4-2.7-7-5.9-8L657.3,204.8L657.3,204.8z"/>
	</g>
</g>
</svg>
