<?xml version="1.0" encoding="utf-8"?>
<!-- Generator: Adobe Illustrator 18.1.1, SVG Export Plug-In . SVG Version: 6.00 Build 0)  -->
<svg version="1.1" id="Ebene_1" xmlns="http://www.w3.org/2000/svg" xmlns:xlink="http://www.w3.org/1999/xlink" x="0px" y="0px"
	 viewBox="240 0 800 800" enable-background="new 240 0 800 800" xml:space="preserve">
<path fill="#FFFFFF" d="M290,50h700v700H290V50z"/>
<path fill="#666666" d="M390,150h500v100H390V150z"/>
<path fill="#999999" d="M290,50v700h700V50H290z M340,100h600v600H340V100z"/>
<path fill="#666666" d="M390,150h500v200H390V150z"/>
<path fill="#666666" d="M390,150h500v200H390V150z"/>
<path fill="none" stroke="#666666" stroke-miterlimit="10" d="M390,150h500v200H390V150z"/>
<path fill="#666666" d="M390,150h500v200H390V150z"/>
<path fill="#E6E6E6" d="M420,180h440v140H420V180z"/>
<rect x="450" y="235" fill="#666666" width="265" height="30"/>
<g>
	<rect x="745" y="235" fill="#666666" width="85" height="30"/>
	<rect x="772.5" y="263" fill="#666666" width="30" height="30"/>
</g>
<path opacity="0.5" fill="#666666" d="M390,380h500v270H390V380z"/>
<rect x="420" y="410" fill="#E6E6E6" width="440" height="90"/>
<rect x="450" y="440" opacity="0.5" fill="#666666" width="265" height="30"/>
<rect x="745" y="440" opacity="0.5" fill="#666666" width="85" height="30"/>
<rect x="420" y="530" fill="#E6E6E6" width="440" height="90"/>
<rect x="450" y="560" opacity="0.5" fill="#666666" width="265" height="30"/>
<rect x="745" y="560" opacity="0.5" fill="#666666" width="85" height="30"/>
</svg>
